<!DOCTYPE svg PUBLIC "-//W3C//DTD SVG 1.1//EN" "http://www.w3.org/Graphics/SVG/1.1/DTD/svg11.dtd">
<svg xmlns="http://www.w3.org/2000/svg" viewBox="0 0 1145 734">
<path d="M1144.495 367c0 202.125.115 284.812.255 183.75.14-101.063.14-266.438 0-367.5-.14-101.063-.255-18.375-.255 183.75M252 283.694c-4.037 1.443-5.255 6.86-2.171 9.651 1.344 1.216 3.73 1.655 9 1.655H266v54h-8.435c-12.92 0-17.305 3.17-13.152 9.507l1.633 2.493h25.906c28.459 0 29.048-.122 29.048-6.015 0-4.673-3.009-5.985-13.723-5.985H278v-66l-12.25.079c-6.738.043-12.925.32-13.75.615m441.242 5.327c-1.242.506-2.768 2.04-3.392 3.409-2.326 5.105 2.648 8.521 12.467 8.559 3.408.013 4.086-2.421-7.09 25.453-8.037 20.044-9.034 21.996-11.575 22.676-5.589 1.494-7.661 6.73-4.081 10.311 2.043 2.042 26.104 2.312 28.637.321 4.65-3.656 1.243-10.75-5.163-10.75-3.442 0-3.695-.842-1.519-5.05l1.525-2.95h28.898l1.525 2.95c2.119 4.097 1.922 5.05-1.04 5.05-7.091 0-10.749 5.685-6.434 10 2.9 2.9 26.749 3.039 29.345.171 3.593-3.97.678-10.135-4.818-10.192-1.719-.018-3.875-4.616-14.183-30.25L724.187 288.5l-14.343-.2c-7.889-.11-15.36.214-16.602.721M337.286 306.39c-18.522 6.054-27.574 24.605-19.708 40.39 8.83 17.72 35.627 21.699 52.202 7.752 7.032-5.918 10.133-18.413 7.09-28.57-4.361-14.558-24.483-24.507-39.584-19.572m73.014.411c-34.002 12.149-25.601 55.841 10.7 55.649 19.187-.102 31.387-11.091 31.287-28.183-.114-19.715-22.57-34.404-41.987-27.466m80.2-.929c-1.65.437-4.44 1.544-6.2 2.461-3.958 2.061-5.3 2.104-5.3.167 0-2.24-18.181-2.176-20.429.071-3.879 3.88-1.38 9.099 4.84 10.108l3.589.583V375h-2.777c-4.106 0-7.223 2.589-7.223 6 0 5.189 2.599 6 19.223 6 13.444 0 14.957-.18 16.777-2 4.943-4.943.898-10-8-10h-6v-10c0-5.5.168-10 .373-10s2.567.993 5.25 2.207c11.936 5.401 28.274 2.053 37.193-7.623 17.554-19.044-5.085-50.646-31.316-43.712m65.14.616c-9.196 1.912-11.64 3.604-11.64 8.056 0 5.155 2.894 6.186 12.25 4.366 15.562-3.027 23.75-1.282 23.75 5.061v2.662l-6.25-.757c-12.3-1.49-24.302 1.762-30.449 8.248-16.191 17.084 3.741 35.04 29.86 26.9 3.714-1.157 6.477-1.571 6.672-1 .185.542 4.524.976 9.75.976 10.503 0 14.237-1.818 13.023-6.342-.318-1.187-.585-2.423-.592-2.747-.023-.992-4.964-2.911-7.494-2.911h-2.385l-.318-16.25c-.292-14.989-.492-16.496-2.574-19.414-5.019-7.037-18.999-9.886-33.603-6.848m161.065-.281c-4.788 11.416-8.705 21.298-8.705 21.958 0 .459 4.275.835 9.5.835s9.5-.252 9.5-.56c0-.645-9.016-22.789-9.459-23.233-.162-.161-.538.289-.836 1m69.144.121c-2.559.722-5.821 2.079-7.25 3.015-2.503 1.64-2.599 1.629-2.599-.32 0-1.882-.632-2.023-9.066-2.023-10.9 0-12.934.851-12.934 5.413 0 3.961 1.551 5.478 6.411 6.266l3.589.583V375h-2.777c-4.106 0-7.223 2.589-7.223 6 0 5.189 2.599 6 19.223 6 13.444 0 14.957-.18 16.777-2 4.943-4.943.898-10-8-10h-6v-10.107c0-9.249.149-10.042 1.75-9.347 19.564 8.501 38.385 3.19 45.25-12.768 8.932-20.762-13.781-43.046-37.151-36.45m75.651-.456c-1.65.437-4.44 1.544-6.2 2.461-3.958 2.061-5.3 2.104-5.3.167 0-2.24-18.181-2.176-20.429.071-3.879 3.88-1.38 9.099 4.84 10.108l3.589.583V375h-2.777c-4.106 0-7.223 2.589-7.223 6 0 5.189 2.599 6 19.223 6 13.444 0 14.957-.18 16.777-2 4.943-4.943.898-10-8-10h-6v-10c0-5.5.168-10 .373-10s2.567.993 5.25 2.207c11.936 5.401 28.274 2.053 37.193-7.623 17.554-19.044-5.085-50.646-31.316-43.712m-521.863 12.593C332.437 321.032 327 327.93 327 334.5c0 14.86 22.082 22.172 33.831 11.202 13.695-12.787-2.683-33.836-21.194-27.237m74-.057c-4.764 1.769-9.436 6.046-11.26 10.31-7.743 18.095 20.187 30.576 34.059 15.221 11.315-12.524-5.903-31.805-22.799-25.531m78.363-.294c-8.353 2.472-14.45 12.48-11.665 19.146 4.102 9.816 17.406 13.386 27.903 7.486 16.629-9.346 2.677-32.23-16.238-26.632m296.256-.052c-1.784.545-4.802 2.55-6.707 4.455-15.8 15.801 9.77 34.935 26.494 19.826 12.18-11.004-2.859-29.46-19.787-24.281m73.937.232c-7.953 3.018-13.331 11.728-11.209 18.156 4.377 13.263 26.591 15.064 34.188 2.771 7.086-11.465-9.092-26.198-22.979-20.927M617 326v6h52v-12h-52v6m-60.5 13.863c-4.732 2.153-6.794 4.374-6.324 6.814 1.492 7.748 29.824 3.469 29.824-4.505 0-3.602-1.585-4.148-12-4.136-5.105.005-8.777.589-11.5 1.827" fill-rule="evenodd"/>
</svg>