<!DOCTYPE svg PUBLIC "-//W3C//DTD SVG 1.1//EN" "http://www.w3.org/Graphics/SVG/1.1/DTD/svg11.dtd">
<svg xmlns="http://www.w3.org/2000/svg" viewBox="0 0 762 565">
<path fill="#14121b" d="M306 262c0 .55.9 1 2 1 1.793 0 2 .667 2 6.434 0 6.275-.068 6.441-2.75 6.75-5.301.61-2.684 2.319 4 2.612 5.55.243 6.75.02 6.75-1.25 0-.982-.912-1.546-2.5-1.546-2.444 0-2.5-.167-2.5-7.5V261h-3.5c-1.925 0-3.5.45-3.5 1m107 1.5c0 .825.675 1.5 1.5 1.5s1.5.393 1.5.873c0 1.519-4.015 10.018-5.028 10.645-2.045 1.263-.832 2.482 2.469 2.482 3.713 0 5.668-1.637 3.122-2.614-2.879-1.105-1.603-2.386 2.378-2.386 4.14 0 6.142 1.37 3.49 2.388-2.541.975-.581 2.612 3.128 2.612 3.618 0 4.348-1.003 2.092-2.874-.741-.616-2.592-4.046-4.112-7.623-2.727-6.415-2.817-6.503-6.652-6.503-2.788 0-3.887.424-3.887 1.5m-88.365 4.573c-3.365 2.646-3.564 7.163-.412 9.37 5.065 3.549 12.777.609 12.777-4.87 0-2.858-4.239-6.573-7.5-6.573-1.227 0-3.416.933-4.865 2.073m18 0c-3.365 2.646-3.564 7.163-.412 9.37 5.065 3.549 12.777.609 12.777-4.87 0-2.858-4.239-6.573-7.5-6.573-1.227 0-3.416.933-4.865 2.073m13.772-.923c-.293.475.17 1.134 1.03 1.464 2.227.855 2.286 13.386.063 13.386-.825 0-1.5.45-1.5 1s2.025 1 4.5 1 4.5-.45 4.5-1-.675-1-1.5-1c-.827 0-1.5-.886-1.5-1.975 0-1.659.478-1.879 2.988-1.377 6.799 1.359 11.41-7.459 5.762-11.021-2.447-1.543-13.457-1.91-14.343-.477m22.034.318c-1.796 1.358-1.585 1.471 2.809 1.5 2.613.018 4.75.482 4.75 1.032s-1.543 1-3.429 1c-5.156 0-8.455 4.206-5.321 6.783 1.996 1.642 13.75 1.315 13.75-.383 0-.77-.45-1.4-1-1.4s-1-1.784-1-3.965c0-5.66-5.798-8.168-10.559-4.567m39.603.45c-1.415 2.644-.968 3.367 1.8 2.913 1.812-.297 1.884-.576.711-2.749l-1.305-2.418-1.206 2.254m10.363-.768c-.293.475.17 1.134 1.03 1.464 2.227.855 2.286 13.386.063 13.386-.825 0-1.5.45-1.5 1s2.025 1 4.5 1 4.5-.45 4.5-1-.675-1-1.5-1c-.827 0-1.5-.886-1.5-1.975 0-1.659.478-1.879 2.988-1.377 6.799 1.359 11.41-7.459 5.762-11.021-2.447-1.543-13.457-1.91-14.343-.477m18.847.248c-.334.541-.078 1.161.569 1.376 1.657.553 1.59 12.912-.073 13.506-2.571.918.198 1.831 4.396 1.449 3.59-.326 3.959-.533 2.104-1.179-3.88-1.351-2.912-4.532 1.177-3.868 6.609 1.072 10.704-5.642 6.192-10.153-2.519-2.52-12.997-3.345-14.365-1.131m-121.587 2.269c-1.454 1.454-.574 5.312 1.459 6.401 4.372 2.339 9.047-2.495 5.674-5.868-1.283-1.283-6.028-1.638-7.133-.533m18 0c-1.454 1.454-.574 5.312 1.459 6.401 4.372 2.339 9.047-2.495 5.674-5.868-1.283-1.283-6.028-1.638-7.133-.533m18.717.775c-1.149 2.995.083 5.053 3.209 5.359 3.947.386 6.007-1.811 4.441-4.737-1.304-2.437-6.783-2.882-7.65-.622m32.616.01c0 1.241 1.308 1.548 6.583 1.548 8.813 0 8.463-2.369-.412-2.798-5.032-.242-6.171-.012-6.171 1.25m39.384-.01c-1.149 2.995.083 5.053 3.209 5.359 3.947.386 6.007-1.811 4.441-4.737-1.304-2.437-6.783-2.882-7.65-.622m18.546.142c-1.866 2.249.071 4.916 3.57 4.916 3.499 0 5.436-2.667 3.57-4.916-.723-.871-2.33-1.584-3.57-1.584-1.24 0-2.847.713-3.57 1.584m-72.922 3.369c-1.082.699-1.19 1.265-.394 2.061 1.368 1.368 6.615.179 6.101-1.383-.491-1.494-3.83-1.891-5.707-.678" fill-rule="evenodd"/>
</svg>